<?xml version="1.0" encoding="UTF-8"?>
<svg id="Capa_1" xmlns="http://www.w3.org/2000/svg" version="1.1" viewBox="0 0 32 32">
  <!-- Generator: Adobe Illustrator 30.1.0, SVG Export Plug-In . SVG Version: 2.1.1 Build 136)  -->
  <defs>
    <style>
      .st0 {
        fill: #d12927;
      }

      .st1 {
        fill: #fff;
      }
    </style>
  </defs>
  <rect class="st0" width="32" height="32"/>
  <path class="st1" d="M28.16,19.84c0-2.58-1.96-4.6-4.47-4.6-1.58,0-2.9.67-3.81,1.93l1.23.88c.62-.87,1.49-1.3,2.58-1.3,1.69,0,2.96,1.33,2.96,3.09s-.96,3.53-3.64,3.53c-1.28,0-2.32-.57-3.54-1.24-1.41-.78-3.01-1.65-5.21-1.65-.65,0-1.28.07-1.89.19l12.1-9.94c.25-.18.41-.33.49-.4l2.04-1.68-.96-1.17-2.15,1.76c-.8-3.96-3.28-6.3-6.8-6.3-1.16,0-2.15.38-3.09.74-.84.32-1.63.62-2.46.62-1.49,0-2.11-.96-2.14-1l-.65.39-.65.39c.04.07,1.05,1.73,3.43,1.73.09,0,.17,0,.26-.01v1.11c-.15-.01-.3-.02-.46-.02-2.68,0-5.46,1.87-5.46,5.01,0,2.54,1.69,4.32,4.11,4.32.05,0,.1,0,.15,0l-2.39,1.97c-.6.49-.84.53-1.03.53-.4,0-.73-.33-.73-.73h-1.51c0,1.24,1.01,2.24,2.24,2.24.65,0,1.23-.25,1.99-.88l3.18-2.62c.97-.8,1.62-1.62,1.62-3.04v-3.54h-1.51v3.17c0,.66-1.05,1.38-2,1.38-1.58,0-2.6-1.1-2.6-2.81s1.38-3.49,3.95-3.49c1.64,0,2.67.71,3.87,1.54,1.32.91,2.81,1.94,5.21,1.94.09,0,.17,0,.26,0l-14.46,11.88.96,1.17.92-.76c.89-.73,1.9-1.29,2.99-1.64.22-.07.46-.14.71-.2v3.86c-.08,0-.17-.01-.26-.01-2.38,0-3.39,1.66-3.43,1.73l1.29.78s.64-1,2.14-1c.84,0,1.63.3,2.46.62.94.36,1.93.74,3.09.74,2.83,0,5-1.48,6.16-4.19,3.39-.11,4.92-2.58,4.92-5.03ZM16.05,8.71c-.83-.57-1.69-1.16-2.76-1.51v-1.68c.42-.13.83-.28,1.24-.43.85-.33,1.66-.64,2.55-.64,1.73,0,4.68.74,5.42,5.59-.53.19-1.23.33-2.1.33-1.93,0-3.1-.81-4.35-1.67h0ZM17.08,27.55c-.89,0-1.7-.31-2.55-.64-.4-.15-.81-.31-1.24-.43v-4.43c.31-.04.64-.06.96-.06,1.81,0,3.11.71,4.48,1.47.91.5,1.84,1.01,2.91,1.26-.74,1.44-2.09,2.83-4.56,2.83h0Z"/>
</svg>