<?xml version="1.0" encoding="UTF-8"?>
<svg id="Layer_1" xmlns="http://www.w3.org/2000/svg" version="1.1" viewBox="0 0 105.28 81.88">
  <defs>
    <style>
      .st0 {
        fill: #ffffff;
      }
    </style>
  </defs>
  <path class="st0" d="M29.29,29.21c0-3.84-1.74-8.05-5.53-8.05h-3.46v16.09h3.46c3.79,0,5.53-4.21,5.53-8.05ZM23.38,23.88h.37c1.87,0,2.34,2.98,2.34,5.34s-.46,5.34-2.34,5.34h-.37v-10.67Z"/>
  <path class="st0" d="M38.09,21.17h-2.05l-4.1,16.09h3.06l.49-2.56h3.02l.48,2.56h3.11l-4.01-16.09ZM35.93,32.43l.93-4.76.15-.97c0,.11.09.62.15.97l.9,4.76h-2.14Z"/>
  <path class="st0" d="M47.76,37.26h2.8l3.46-16.09h-3l-1.72,9.04c-.09.46-.15,1.1-.15,1.1,0,0-.09-.68-.15-1.1l-1.66-9.04h-3.04l3.46,16.09Z"/>
  <rect class="st0" x="57.66" y="21.17" width="3.09" height="16.09"/>
  <path class="st0" d="M74.23,29.21c0-3.84-1.74-8.05-5.53-8.05h-3.46v16.09h3.46c3.79,0,5.53-4.21,5.53-8.05ZM68.32,23.88h.38c1.87,0,2.34,2.98,2.34,5.34s-.46,5.34-2.34,5.34h-.38v-10.67Z"/>
  <polygon class="st0" points="85.28 34.64 81.29 34.64 81.29 30.45 84.93 30.45 84.93 27.82 81.29 27.82 81.29 23.79 85.21 23.79 85.21 21.17 78.2 21.17 78.2 37.26 85.28 37.26 85.28 34.64"/>
  <path class="st0" d="M17.49,48.18c0-3.77-2.6-4.96-4.87-4.96h-3.13v16.09h3.09v-6.86l2.31,6.86h3.13l-2.67-7.08c1.21-.55,2.14-1.76,2.14-4.06ZM12.58,50.68v-4.85c1.23,0,1.72.75,1.72,2.36s-.49,2.49-1.72,2.49Z"/>
  <rect class="st0" x="21.75" y="43.22" width="3.09" height="16.09"/>
  <path class="st0" d="M38.17,43.22h-8.95v2.62h4.3c.26,0,.53-.02.53-.02,0,0-.15.24-.24.44l-5.42,13.05h9.26v-2.62h-4.63c-.2,0-.42.02-.42.02,0,0,.13-.2.22-.42l5.36-13.07Z"/>
  <path class="st0" d="M50.83,43.22h-8.95v2.62h4.3c.27,0,.53-.02.53-.02,0,0-.15.24-.24.44l-5.42,13.05h9.26v-2.62h-4.63c-.2,0-.42.02-.42.02,0,0,.13-.2.22-.42l5.36-13.07Z"/>
  <path class="st0" d="M57.33,56.76h3.02l.49,2.56h3.11l-4.01-16.09h-2.05l-4.1,16.09h3.06l.48-2.56ZM58.69,49.73l.15-.97c0,.11.09.62.15.97l.9,4.76h-2.14l.92-4.76Z"/>
  <path class="st0" d="M75.7,48.18c0-3.77-2.6-4.96-4.87-4.96h-3.13v16.09h3.09v-6.86l2.32,6.86h3.13l-2.67-7.08c1.21-.55,2.14-1.76,2.14-4.06ZM70.78,50.68v-4.85c1.24,0,1.72.75,1.72,2.36s-.48,2.49-1.72,2.49Z"/>
  <path class="st0" d="M83.43,43.22h-3.46v16.09h3.46c3.79,0,5.53-4.21,5.53-8.05s-1.74-8.05-5.53-8.05ZM83.43,56.61h-.38v-10.67h.38c1.87,0,2.34,2.98,2.34,5.34s-.46,5.34-2.34,5.34Z"/>
  <rect class="st0" x="92.95" y="43.22" width="3.09" height="16.09"/>
  <path class="st0" d="M43.76,12.54c1.17,0,2.24-.51,2.85-1.36.08-.11.06-.25-.04-.34l-.66-.57c-.05-.04-.12-.06-.18-.06-.07,0-.13.04-.17.09-.45.54-1.1.84-1.78.84-.87,0-2.1-.72-2.1-2.34,0-1.33.9-2.3,2.14-2.3.63,0,1.17.23,1.6.68.09.1.25.1.35.01l.68-.61c.1-.09.11-.25.02-.35-.66-.77-1.51-1.14-2.67-1.14-2.04,0-3.58,1.6-3.58,3.72,0,2.33,1.8,3.72,3.54,3.72Z"/>
  <path class="st0" d="M48.37,12.43h.92c.14,0,.25-.11.25-.25v-2.64h2.72v2.64c0,.14.11.25.25.25h.92c.14,0,.25-.11.25-.25v-6.72c0-.14-.11-.25-.25-.25h-.92c-.14,0-.25.11-.25.25v2.71h-2.72v-2.71c0-.14-.11-.25-.25-.25h-.92c-.14,0-.25.11-.25.25v6.72c0,.14.11.25.25.25Z"/>
  <path class="st0" d="M55.72,12.43h3.93c.14,0,.25-.11.25-.25v-.86c0-.14-.11-.25-.25-.25h-2.76v-1.48h2.52c.14,0,.25-.11.25-.25v-.87c0-.14-.11-.25-.25-.25h-2.52v-1.64h2.58c.14,0,.25-.11.25-.25v-.87c0-.14-.11-.25-.25-.25h-3.75c-.14,0-.25.11-.25.25v6.72c0,.14.11.25.25.25Z"/>
  <path class="st0" d="M65.03,6.58c.14,0,.25-.11.25-.25v-.87c0-.14-.11-.25-.25-.25h-3.31c-.14,0-.25.11-.25.25v6.72c0,.14.11.25.25.25h.92c.14,0,.25-.11.25-.25v-2.59h2c.14,0,.25-.11.25-.25v-.87c0-.14-.11-.25-.25-.25h-2v-1.64h2.14Z"/>
  <path class="st0" d="M8.31,69.98c0-.33.13-.56.52-.56.33,0,.55.29.77.67l1.06-.88c-.38-.64-.94-1.15-1.83-1.15-1.38,0-2.08.94-2.08,1.97,0,.86.48,1.59,1.01,2.24.65.78,1.37,1.44,1.37,2.05,0,.46-.2.69-.54.69-.28,0-.64-.29-.88-.84l-1.15.93c.41.73,1.13,1.27,2.01,1.27,1.24,0,2.16-.85,2.16-2.1,0-1.05-.72-1.86-1.37-2.59-.54-.61-1.05-1.15-1.05-1.7Z"/>
  <path class="st0" d="M15.02,68.06c-1.9,0-2.65,2.24-2.65,4.16s.75,4.16,2.65,4.16c.4,0,.75-.1,1.06-.28.28.32.55.57.76.68l.84-.93c-.23-.11-.52-.3-.8-.53.56-.83.8-2.02.8-3.11,0-1.92-.76-4.16-2.66-4.16ZM15.78,74.3c-.21-.25-.38-.51-.47-.75l-.54.53c.08.22.25.55.47.89-.07.03-.14.04-.22.04-.85,0-1.05-1.62-1.05-2.8s.2-2.8,1.05-2.8,1.06,1.62,1.06,2.8c0,.68-.06,1.51-.3,2.08Z"/>
  <path class="st0" d="M22.52,73.66c0,.95-.19,1.32-.68,1.32s-.68-.38-.68-1.32v-5.47h-1.54v5.47c0,1.53.71,2.71,2.23,2.71s2.23-1.18,2.23-2.71v-5.47h-1.54v5.47Z"/>
  <rect class="st0" x="26.21" y="68.19" width="1.54" height="8.05"/>
  <path class="st0" d="M31.45,69.98c0-.33.13-.56.52-.56.33,0,.55.29.77.67l1.06-.88c-.38-.64-.94-1.15-1.83-1.15-1.38,0-2.08.94-2.08,1.97,0,.86.48,1.59,1.01,2.24.65.78,1.37,1.44,1.37,2.05,0,.46-.2.69-.54.69-.28,0-.64-.29-.88-.84l-1.15.93c.41.73,1.13,1.27,2.01,1.27,1.24,0,2.16-.85,2.16-2.1,0-1.05-.72-1.86-1.37-2.59-.54-.61-1.05-1.15-1.05-1.7Z"/>
  <rect class="st0" x="35.92" y="68.19" width="1.54" height="8.05"/>
  <polygon class="st0" points="39.34 69.5 40.47 69.5 40.47 76.24 42.02 76.24 42.02 69.5 43.15 69.5 43.15 68.19 39.34 68.19 39.34 69.5"/>
  <path class="st0" d="M46.16,68.19l-2.05,8.05h1.53l.24-1.28h1.51l.24,1.28h1.55l-2.01-8.05h-1.02ZM46.11,73.82l.46-2.38.08-.49c0,.06.04.31.08.49l.45,2.38h-1.07Z"/>
  <path class="st0" d="M55.62,68.19h-1.57v8.05h1.54v-2.9c1.36,0,2.46-.83,2.46-2.63s-1.3-2.51-2.44-2.51ZM55.6,72v-2.51c.62,0,.86.41.86,1.21s-.24,1.3-.86,1.3Z"/>
  <path class="st0" d="M60.94,68.19l-2.05,8.05h1.53l.24-1.28h1.51l.24,1.28h1.55l-2.01-8.05h-1.03ZM60.89,73.82l.46-2.38.08-.49c0,.06.04.31.08.49l.45,2.38h-1.07Z"/>
  <path class="st0" d="M67.37,69.98c0-.33.13-.56.52-.56.33,0,.55.29.77.67l1.06-.88c-.38-.64-.94-1.15-1.83-1.15-1.38,0-2.08.94-2.08,1.97,0,.86.48,1.59,1.01,2.24.65.78,1.37,1.44,1.37,2.05,0,.46-.2.69-.54.69-.28,0-.64-.29-.88-.84l-1.15.93c.41.73,1.13,1.27,2.01,1.27,1.24,0,2.16-.85,2.16-2.1,0-1.05-.72-1.86-1.37-2.59-.54-.61-1.05-1.15-1.05-1.7Z"/>
  <path class="st0" d="M73.11,69.98c0-.33.13-.56.52-.56.33,0,.55.29.77.67l1.06-.88c-.38-.64-.94-1.15-1.83-1.15-1.38,0-2.08.94-2.08,1.97,0,.86.48,1.59,1.01,2.24.65.78,1.37,1.44,1.37,2.05,0,.46-.2.69-.54.69-.28,0-.64-.29-.88-.84l-1.15.93c.41.73,1.13,1.27,2.01,1.27,1.23,0,2.16-.85,2.16-2.1,0-1.05-.72-1.86-1.37-2.59-.54-.61-1.05-1.15-1.05-1.7Z"/>
  <rect class="st0" x="77.57" y="68.19" width="1.54" height="8.05"/>
  <path class="st0" d="M83.75,68.06c-1.9,0-2.65,2.24-2.65,4.16s.75,4.16,2.65,4.16,2.66-2.24,2.66-4.16-.76-4.16-2.66-4.16ZM83.75,75.01c-.85,0-1.05-1.62-1.05-2.8s.2-2.8,1.05-2.8,1.06,1.62,1.06,2.8-.21,2.8-1.06,2.8Z"/>
  <path class="st0" d="M91.44,72.15c0,.15.02.41.03.43l-.15-.4-1.71-3.99h-1.21v8.05h1.54v-3.67c0-.21-.02-.46-.02-.46l.18.44,1.62,3.69h1.27v-8.05h-1.54v3.96Z"/>
  <polygon class="st0" points="96.73 74.93 96.73 72.83 98.55 72.83 98.55 71.52 96.73 71.52 96.73 69.5 98.69 69.5 98.69 68.19 95.19 68.19 95.19 76.24 98.72 76.24 98.72 74.93 96.73 74.93"/>
</svg>
