<?xml version="1.0" encoding="UTF-8"?>
<svg id="Layer_1" xmlns="http://www.w3.org/2000/svg" version="1.1" viewBox="0 0 56.68 62.44">
  <defs>
    <style>
      .st0 {
        fill: #ffffff;
      }
    </style>
  </defs>
  <path class="st0" d="M49.42,38.05c0-4.59-3.49-8.18-7.95-8.18-2.81,0-5.15,1.19-6.77,3.44l2.18,1.57c1.1-1.54,2.65-2.32,4.58-2.32,3,0,5.26,2.36,5.26,5.49s-1.7,6.28-6.48,6.28c-2.27,0-4.13-1.02-6.29-2.21-2.51-1.38-5.35-2.94-9.26-2.94-1.15,0-2.28.13-3.36.33l21.51-17.67c.45-.32.73-.58.87-.71l3.63-2.98-1.71-2.08-3.82,3.13c-1.43-7.05-5.84-11.2-12.09-11.2-2.07,0-3.82.67-5.5,1.31-1.49.57-2.89,1.1-4.38,1.1-2.65,0-3.75-1.7-3.8-1.77l-1.15.7-1.16.69c.07.12,1.87,3.07,6.1,3.07.16,0,.31-.01.46-.02v1.98c-.27-.02-.54-.03-.82-.03-4.77,0-9.71,3.33-9.71,8.9,0,4.52,3.01,7.68,7.31,7.68.09,0,.17,0,.26-.01l-4.25,3.5c-1.07.88-1.5.95-1.83.95-.72,0-1.3-.58-1.3-1.3h-2.69c0,2.2,1.79,3.99,3.99,3.99,1.16,0,2.19-.45,3.54-1.56l5.66-4.65c1.73-1.42,2.88-2.88,2.88-5.4v-6.29h-2.69v5.63c0,1.17-1.86,2.46-3.56,2.46-2.81,0-4.62-1.96-4.62-5s2.46-6.21,7.02-6.21c2.91,0,4.75,1.27,6.88,2.74,2.34,1.62,4.99,3.45,9.26,3.45.16,0,.31,0,.47-.01l-25.72,21.13,1.71,2.08,1.64-1.35c1.58-1.3,3.38-2.3,5.32-2.91.4-.13.82-.25,1.26-.36v6.87c-.15,0-.3-.02-.46-.02-4.23,0-6.03,2.95-6.1,3.07l2.3,1.39c.05-.07,1.14-1.77,3.8-1.77,1.5,0,2.9.54,4.38,1.1,1.68.64,3.43,1.31,5.5,1.31,5.04,0,8.89-2.64,10.96-7.45,6.03-.2,8.74-4.59,8.74-8.94ZM27.89,18.25c-1.48-1.02-3-2.07-4.9-2.68v-2.98c.75-.23,1.48-.5,2.2-.77,1.52-.58,2.96-1.13,4.54-1.13,3.08,0,8.32,1.32,9.63,9.94-.95.33-2.18.59-3.73.59-3.43,0-5.52-1.44-7.73-2.97ZM29.72,51.75c-1.58,0-3.02-.55-4.54-1.13-.71-.27-1.44-.55-2.2-.77v-7.87c.56-.07,1.14-.1,1.71-.1,3.22,0,5.53,1.27,7.96,2.61,1.62.89,3.28,1.79,5.18,2.24-1.31,2.56-3.71,5.03-8.11,5.03Z"/>
</svg>
