<?xml version="1.0" encoding="UTF-8"?>
<svg id="Layer_1" xmlns="http://www.w3.org/2000/svg" version="1.1" viewBox="0 0 351.54 77.96">
  <!-- Generator: Adobe Illustrator 30.1.0, SVG Export Plug-In . SVG Version: 2.1.1 Build 136)  -->
  <defs>
    <style>
      .st0 {
        fill: #d12927;
      }
    </style>
  </defs>
  <path class="st0" d="M169.83,12.24c.04-.05.03-.12-.02-.17l-.58-.5s-.06-.04-.09-.03c-.03,0-.06.02-.09.04-.41.49-1,.76-1.62.76-.8,0-1.92-.66-1.92-2.12,0-1.21.82-2.09,1.95-2.09.58,0,1.07.21,1.46.62.05.05.12.05.17,0l.59-.53c.05-.05.06-.12.01-.17-.56-.65-1.27-.95-2.25-.95-1.72,0-3.02,1.35-3.02,3.14,0,1.96,1.52,3.14,2.99,3.14.99,0,1.89-.43,2.4-1.15Z"/>
  <path class="st0" d="M171.44,13.29h.8c.07,0,.12-.06.12-.12v-2.39h2.55v2.39c0,.07.06.12.12.12h.8c.07,0,.12-.06.12-.12v-5.84c0-.07-.06-.12-.12-.12h-.8c-.07,0-.12.06-.12.12v2.45h-2.55v-2.45c0-.07-.06-.12-.12-.12h-.8c-.07,0-.12.06-.12.12v5.84c0,.07.06.12.12.12Z"/>
  <path class="st0" d="M177.84,13.29h3.41c.07,0,.12-.06.12-.12v-.75c0-.07-.06-.12-.12-.12h-2.49v-1.47h2.28c.07,0,.12-.06.12-.12v-.75c0-.07-.06-.12-.12-.12h-2.28v-1.61h2.34c.07,0,.12-.06.12-.12v-.75c0-.07-.06-.12-.12-.12h-3.26c-.07,0-.12.06-.12.12v5.84c0,.07.06.12.12.12Z"/>
  <path class="st0" d="M183.07,13.29h.8c.07,0,.12-.06.12-.12v-2.35h1.83c.07,0,.12-.06.12-.12v-.75c0-.07-.06-.12-.12-.12h-1.83v-1.61h1.95c.07,0,.12-.06.12-.12v-.75c0-.07-.06-.12-.12-.12h-2.88c-.07,0-.12.06-.12.12v5.84c0,.07.06.12.12.12Z"/>
  <path class="st0" d="M127.41,63.45c0-.36.14-.61.56-.61.36,0,.6.31.84.73l1.15-.96c-.41-.7-1.02-1.25-1.99-1.25-1.5,0-2.27,1.02-2.27,2.15,0,.94.53,1.73,1.1,2.44.71.85,1.49,1.57,1.49,2.23,0,.5-.22.76-.59.76-.3,0-.7-.31-.96-.91l-1.25,1.01c.44.79,1.24,1.38,2.18,1.38,1.34,0,2.35-.92,2.35-2.29,0-1.14-.78-2.03-1.49-2.82-.59-.66-1.14-1.25-1.14-1.85Z"/>
  <path class="st0" d="M134.7,61.36c-2.06,0-2.88,2.43-2.88,4.52s.82,4.52,2.88,4.52c.43,0,.82-.11,1.15-.3.3.35.6.62.83.74l.91-1.01c-.25-.12-.56-.32-.88-.58.61-.9.88-2.19.88-3.38,0-2.09-.83-4.52-2.89-4.52ZM135.53,68.15c-.23-.28-.41-.55-.52-.82l-.59.58c.08.24.28.6.52.97-.07.04-.16.05-.24.05-.92,0-1.14-1.76-1.14-3.05s.22-3.05,1.14-3.05,1.15,1.76,1.15,3.05c0,.74-.07,1.64-.32,2.27Z"/>
  <path class="st0" d="M142.86,67.45c0,1.03-.2,1.44-.74,1.44s-.74-.41-.74-1.44v-5.95h-1.68v5.95c0,1.67.77,2.95,2.42,2.95s2.42-1.28,2.42-2.95v-5.95h-1.68v5.95Z"/>
  <rect class="st0" x="146.88" y="61.5" width="1.68" height="8.76"/>
  <path class="st0" d="M152.58,63.45c0-.36.14-.61.56-.61.36,0,.6.31.84.73l1.15-.96c-.41-.7-1.02-1.25-1.99-1.25-1.5,0-2.27,1.02-2.27,2.15,0,.94.53,1.73,1.1,2.44.71.85,1.49,1.57,1.49,2.23,0,.5-.22.76-.59.76-.3,0-.7-.31-.96-.91l-1.25,1.01c.44.79,1.24,1.38,2.18,1.38,1.34,0,2.35-.92,2.35-2.29,0-1.14-.78-2.03-1.49-2.82-.59-.66-1.14-1.25-1.14-1.85Z"/>
  <rect class="st0" x="157.44" y="61.5" width="1.68" height="8.76"/>
  <polygon class="st0" points="161.16 62.93 162.4 62.93 162.4 70.26 164.07 70.26 164.07 62.93 165.31 62.93 165.31 61.5 161.16 61.5 161.16 62.93"/>
  <path class="st0" d="M168.59,61.5l-2.23,8.76h1.67l.26-1.39h1.64l.26,1.39h1.69l-2.18-8.76h-1.12ZM168.53,67.63l.5-2.59.08-.53c0,.06.05.34.08.53l.49,2.59h-1.16Z"/>
  <path class="st0" d="M178.87,61.5h-1.7v8.76h1.68v-3.15c1.48,0,2.67-.9,2.67-2.87s-1.42-2.74-2.65-2.74ZM178.85,65.65v-2.73c.67,0,.94.44.94,1.32s-.26,1.42-.94,1.42Z"/>
  <path class="st0" d="M184.67,61.5l-2.23,8.76h1.67l.26-1.39h1.64l.26,1.39h1.69l-2.18-8.76h-1.12ZM184.61,67.63l.5-2.59.08-.53c0,.06.05.34.08.53l.49,2.59h-1.16Z"/>
  <path class="st0" d="M191.66,63.45c0-.36.14-.61.56-.61.36,0,.6.31.84.73l1.15-.96c-.41-.7-1.02-1.25-1.99-1.25-1.5,0-2.27,1.02-2.27,2.15,0,.94.53,1.73,1.1,2.44.71.85,1.49,1.57,1.49,2.23,0,.5-.22.76-.59.76-.3,0-.7-.31-.96-.91l-1.25,1.01c.44.79,1.24,1.38,2.18,1.38,1.34,0,2.35-.92,2.35-2.29,0-1.14-.78-2.03-1.49-2.82-.59-.66-1.14-1.25-1.14-1.85Z"/>
  <path class="st0" d="M197.9,63.45c0-.36.14-.61.56-.61.36,0,.6.31.84.73l1.15-.96c-.41-.7-1.02-1.25-1.99-1.25-1.5,0-2.27,1.02-2.27,2.15,0,.94.53,1.73,1.1,2.44.71.85,1.49,1.57,1.49,2.23,0,.5-.22.76-.59.76-.3,0-.7-.31-.96-.91l-1.25,1.01c.44.79,1.24,1.38,2.18,1.38,1.34,0,2.35-.92,2.35-2.29,0-1.14-.78-2.03-1.49-2.82-.59-.66-1.14-1.25-1.14-1.85Z"/>
  <rect class="st0" x="202.76" y="61.5" width="1.68" height="8.76"/>
  <path class="st0" d="M209.48,61.36c-2.06,0-2.88,2.43-2.88,4.52s.82,4.52,2.88,4.52,2.89-2.43,2.89-4.52-.83-4.52-2.89-4.52ZM209.48,68.93c-.92,0-1.14-1.76-1.14-3.05s.22-3.05,1.14-3.05,1.15,1.76,1.15,3.05-.23,3.05-1.15,3.05Z"/>
  <path class="st0" d="M217.85,65.81c0,.17.02.44.04.47l-.17-.43-1.86-4.34h-1.32v8.76h1.68v-3.99c0-.23-.02-.5-.02-.5l.19.48,1.76,4.02h1.38v-8.76h-1.68v4.31Z"/>
  <polygon class="st0" points="223.61 66.55 225.59 66.55 225.59 65.12 223.61 65.12 223.61 62.93 225.74 62.93 225.74 61.5 221.93 61.5 221.93 70.26 225.78 70.26 225.78 68.83 223.61 68.83 223.61 66.55"/>
  <path class="st0" d="M135.29,22.26c.11.04.23.06.34.1.77.23,1.55.69,1.71,1.43.05.23.08.47.08.7,0,1.13,0,2.26,0,3.39,0,.95,0,1.89,0,2.84.01,3.43,0,6.87,0,10.3,0,2.09.03,4.18.01,6.27,0,.63,0,1.26-.01,1.89-.02.6-.29,1.09-.88,1.44-.31.18-.64.35-1.01.44-.39.1-.59.12-.53.54.02.18.29.15.45.15.57,0,1.15,0,1.72,0,5.49,0,10.42,0,15.91,0,.24,0,.27-.03.34-.23.31-.97.61-1.95.91-2.93.16-.53.32-1.07.48-1.6,0-.02.04-.03.07-.05v-.39c-.58-.14-.55-.3-.89.23-.24.35-.47.71-.7,1.06-.81,1.22-2.2,2.13-3.76,2.49-.6.11-1.22.19-1.84.18-1.98,0-3.39,0-5.37,0-.86.03-2.01-.04-2.27-.9-.26-.87-.1-1.78-.12-2.67.02-.76-.01-1.52,0-2.28.02-3.27.01-7.08,0-10.36,0-.46,0-.43.5-.43,2.28,0,4.56,0,6.83,0,.6,0,1.16.13,1.69.38.91.42,1.47,1.19,2.06,1.9.14.16.2.19.42.13.17-.05.45-.1.39-.3-.27-.94-.58-1.87-.87-2.81-.29-.93-.58-1.85-.87-2.77-.14-.45-.14-.45-.64-.32-.23.04-.17.28-.16.44,0,.38.08.75.01,1.14-.09.9-1.3.98-2.12.99-2.34,0-4.68,0-7.01,0-.17,0-.21-.03-.21-.19-.02-.57-.02-1.13-.05-1.7.08-1.6.08-2.68,0-4.27.1-.92-.15-1.88.18-2.78.33-.86,1.47-.81,2.33-.83,1.8,0,3.03-.04,4.82.04,1.72.11,3.38.84,4.42,2.05.46.59.87,1.2,1.28,1.81.16.28.37.19.66.09.18-.06.2-.09.14-.27-.51-1.61-1.01-3.22-1.52-4.83-.07-.18-.3-.13-.47-.13-.92,0-1.84,0-2.76,0-4.02.02-7.49-.04-11.51,0-.74,0-1.48,0-2.22,0-.21,0-.26.05-.27.23,0,.25.04.3.3.38Z"/>
  <path class="st0" d="M306.99,31.41c-.15-.52-.37-1.03-.52-1.55-.25-.69-.64-1.33-1.01-1.97-.51-.93-1.18-1.77-1.97-2.53-.51-.48-1.04-.95-1.65-1.33-.43-.27-.85-.55-1.28-.81-.7-.42-1.47-.71-2.26-.98-.84-.31-1.75-.5-2.66-.54-1.11-.03-2.23-.13-3.33-.05-1.19.02-2.38-.03-3.57.02-.04,0-.08.04-.1.07-.17.4.23.54.59.61.43.11.8.31,1.13.56.53.36.68.96.68,1.52-.01,2.28-.02,4.55-.02,6.83.01,2.85.02,5.71.01,8.56-.02,2.66.04,5.31.01,7.97-.04,1.04.26,2.23-.94,2.87-.29.16-.59.31-.93.4-.33.09-.62.1-.57.48,0,.16.06.21.25.21,1.25,0,3.75.02,3.75.03,1.58-.04,3.17.11,4.73-.14,3.95-.68,6.87-2.59,8.56-5.8.54-.91.9-1.9,1.16-2.89.2-.88.46-1.74.54-2.63.22-2.07.29-4.18,0-6.25-.1-.9-.41-1.77-.61-2.66ZM304.75,40.86c-.2,1.84-.76,3.67-1.84,5.27-1.79,2.57-5.31,5.17-8.95,4.02-.24-.08-.55-.26-.52-.52.03-.16,0-.34-.02-.51.1-.83.02-1.65.05-2.48,0-.56,0-3.08,0-3.77.02-1.46.01-2.92-.01-4.37.03-3.22.01-6.44.02-9.65-.02-.88-.01-4.68-.01-4.93,0-.29.02-.48.18-.56.61-.32,1.25-.4,1.93-.42,1.85-.04,3.82.92,5.01,1.95,1.82,1.55,2.88,3.81,3.48,5.97.68,2.1.93,4.24.94,6.42.01,1.17-.12,2.41-.26,3.58Z"/>
  <path class="st0" d="M74.49,51.04c-.93-.25-1.59-.96-1.83-1.77-.65-2.15-1.29-4.3-1.94-6.44-.43-1.45-.88-2.9-1.31-4.34-1.26-4.23-2.51-8.47-3.82-12.69-.38-1.26-.76-2.52-1.14-3.77-.08-.25-.15-.51-.23-.76-.03-.08-.09-.14-.19-.14-.44,0-.87,0-1.31,0-.08,0-.14.04-.17.11-.33,1.13-.66,2.27-1,3.4-1.63,5.5-3.26,10.99-4.91,16.49-.73,2.47-1.46,4.94-2.2,7.41-.14.48-.35.95-.62,1.39-.39.66-1.07,1.03-1.86,1.21-.26.08-.3.13-.3.38,0,.19.05.24.26.24,1.82.01,3.65,0,5.47,0,.31,0,.35-.03.34-.29,0-.24-.05-.28-.34-.34-.36-.05-.7-.16-1.02-.3-1.25-.57-.35-2.05-.17-2.96.29-.99.58-1.98.88-2.98.06-.19.12-.38.17-.57.03-.11.11-.15.22-.15,1.79,0,3.59,0,5.38,0h0c1.79,0,3.59,0,5.38,0,.12,0,.2.05.23.15.12.34.2.69.3,1.03.27.9.54,1.8.8,2.71.16.55.35,1.09.41,1.65.13.88-.73,1.26-1.58,1.41-.39.04-.48.16-.43.5.02.16.24.14.38.13,2.14,0,4.28,0,6.42,0,.36.01.36-.08.35-.36,0-.29-.4-.26-.62-.36ZM67.62,42.9c-1.6,0-3.2,0-4.79,0-1.61,0-3.23,0-4.84,0-.27,0-.3-.03-.24-.25.14-.51.3-1.02.46-1.52.67-2.18,1.32-4.37,1.98-6.55.62-2.08,1.27-4.16,1.82-6.25.21-.77.42-1.53.64-2.3.02-.11.05-.25.21-.25.17.02.16.19.19.31.17.92.49,1.81.75,2.72.61,2.18,1.31,4.34,1.92,6.52.59,1.91,1.2,3.82,1.75,5.74.15.49.32.98.45,1.48.08.31.16.36-.3.36Z"/>
  <path class="st0" d="M95.85,21.65c-1.04,0-2.08,0-3.12,0-.78-.04-1.57,0-2.35,0-.1,0-.23,0-.26.1-.15.4.17.52.56.56.56.13,1.22.34,1.37.89.21.84-.3,1.65-.46,2.47-.48,1.71-.99,3.41-1.52,5.11-.25.95-.56,1.88-.86,2.82-.97,3.2-1.94,6.4-2.88,9.6-.38,1.38-.77,2.76-1.14,4.14-.03.12-.05.28-.22.29-.17-.03-.16-.19-.19-.32-.18-1.01-.56-1.99-.83-2.98-.27-1-.54-1.99-.88-2.97-1.41-4.72-2.84-9.44-4.27-14.16-.18-.61-.36-1.22-.54-1.83-.2-.87-.96-2.22.22-2.78.36-.17.76-.25,1.15-.33.15-.03.23-.12.23-.25,0-.14.02-.34-.2-.33-.23,0-.45,0-.68,0-.95-.02-1.8-.02-2.77.01-1.07-.04-2.28-.05-3.38,0-.05.02-.11.06-.12.1-.08.32,0,.43.35.53,1.05.22,1.85.93,2.08,1.84,1.09,3.58,2.14,7.17,3.24,10.74,1.07,3.49,2.06,7,3.14,10.48.68,2.25,1.35,4.5,2.05,6.74.03.1.09.17.21.17.44,0,.87,0,1.31-.01.17,0,.18-.15.21-.26,2.06-6.97,4.14-13.94,6.21-20.91.61-2.06,1.22-4.12,1.83-6.18.14-.47.35-.92.6-1.36.36-.63.94-1.01,1.69-1.22.22-.07.53-.09.5-.36.02-.26-.03-.3-.32-.3Z"/>
  <path class="st0" d="M105.64,22.83c.33-.21.68-.39,1.07-.5.2-.07.54-.07.56-.32.02-.24.02-.37-.3-.36-2.26,0-4.5.01-6.76,0-.04,0-.1,0-.13.01-.05.02-.11.06-.12.1-.08.31,0,.43.35.53.07.02.14.04.22.06.76.23,1.63.69,1.75,1.44.06.4.12.81.09,1.22-.04.64.01,1.28-.03,1.93,0,1.46,0,2.92-.01,4.38.06,4.64-.05,9.29.05,13.92-.11.63.02,1.26-.03,1.89-.07,2.07.58,3.32-2.24,4.05-.18.05-.16.24-.16.38,0,.16.06.21.25.21,1.05,0,5.78,0,6.76,0,.29,0,.34-.04.33-.3.02-.29-.32-.33-.57-.4-.78-.22-1.61-.68-1.77-1.43-.14-.55-.06-1.13-.08-1.69,0-.92-.01-1.84,0-2.76.02-1.76.02-3.52.02-5.29,0-4.59,0-9.18-.01-13.77,0-.63-.01-1.26,0-1.89.02-.56.24-1.05.78-1.4Z"/>
  <path class="st0" d="M176.21,51.04c-.71-.2-1.51-.61-1.74-1.27-.07-.23-.13-.46-.13-.7,0-.93,0-1.87-.01-2.8,0-.43.02-1.56.02-1.69-.01-1.14-.04-2.28,0-3.43.02-.92-.04-1.84.01-2.76.02-.14.05-.16.2-.12.58.2,1.21.19,1.82.28.58.08,1.17.08,1.76.02.18-.03.26.11.32.23,1.5,2.5,2.99,5,4.5,7.5.53.88,1.05,1.77,1.58,2.66.31.57.75,1.59-.16,1.91-.34.1-.68.21-1.04.27-.11.03-.19.1-.2.2-.03.35-.01.4.39.4.92,0,1.84,0,2.76,0,1.19,0,2.38,0,3.57,0,.09,0,.18,0,.27,0,.21-.03.14-.26.14-.41,0-.09-.07-.15-.16-.17-.28-.09-.58-.15-.85-.27-.76-.38-1.38-.9-1.79-1.57-2.2-3.65-4.38-7.31-6.58-10.96-.08-.13-.05-.19.1-.24.28-.1.57-.17.84-.28,1.76-.76,3.26-1.98,4.09-3.54,1.09-2.04,1.16-4.46.35-6.58-1.04-2.34-3.22-4.42-5.89-5.39-1.39-.39-2.83-.69-4.3-.66-.81.02-1.63-.08-2.44-.05-.41.04-.81.04-1.22.04-.9,0-1.81,0-2.71,0-.21,0-.26.05-.27.23,0,.25.04.3.3.38.11.04.23.06.34.1.76.23,1.55.69,1.71,1.43.05.22.08.44.08.66,0,.84,0,1.68,0,2.52,0,3.24,0,6.47,0,9.71h0c0,2.85,0,5.71.02,8.56,0,1.32,0,2.63-.02,3.95.01,1.1-1.07,1.7-2.18,1.96-.22.07-.32.34-.2.53.02.03.07.06.11.06,1.14.04,2.29,0,3.43.02,1.14.03,2.29,0,3.43,0,.26,0,.31-.05.3-.29.03-.31-.3-.34-.56-.41ZM174.31,24.44c0-.22.03-.44-.03-.66-.06-.36.51-.51.81-.64.6-.21,1.23-.27,1.87-.21,2.6.16,4.77,1.63,5.94,3.63.66,1.06,1.03,2.22,1.07,3.42.13,1.26-.08,2.57-.61,3.75-.52,1.04-1.35,1.98-2.42,2.64-.57.35-1.24.53-1.9.7-.57.13-1.15.18-1.74.17-.91-.01-1.87-.04-2.63-.55-.22-.14-.35-.29-.34-.55.04-1.59,0-3.18.01-4.77,0,0,0,0,0,0,0-1.27,0-2.55,0-3.82.01-.46.01-.92-.05-1.37.07-.58.03-1.15.02-1.73Z"/>
  <path class="st0" d="M261.72,51.02c-.97-.26-1.61-1-1.85-1.84-.92-3.08-1.86-6.15-2.77-9.23-1.18-3.9-2.33-7.8-3.52-11.7-.71-2.34-1.4-4.68-2.13-7.01-.03-.08-.08-.14-.19-.14-.44,0-.87,0-1.31.01-.18,0-.18.18-.23.3-1.94,6.7-3.97,13.38-5.95,20.08-.68,2.3-1.36,4.61-2.05,6.91-.16.52-.37,1.03-.66,1.51-.35.58-.89.95-1.6,1.14-.19.07-.51.07-.54.29,0,.19-.06.42.25.4.75,0,1.51,0,2.26,0,1.07,0,2.14,0,3.21,0,.12,0,.31,0,.33-.13.03-.2.02-.44-.25-.48-.69-.11-1.57-.31-1.73-1-.08-.31-.03-.6.04-.9.13-.5.28-.99.42-1.49.17-.6.33-1.2.51-1.8.14-.44.32-.88.39-1.33.02-.12.08-.23.12-.34.03-.07.08-.11.16-.12,1.81-.03,3.62,0,5.42,0h0c1.76,0,3.53,0,5.29,0,.21,0,.3,0,.35.23.4,1.52.96,3.09,1.37,4.66.07.24.12.49.13.74.07.91-.77,1.16-1.62,1.34-.35.08-.4.11-.38.42-.02.25.22.21.43.21.97,0,1.93,0,2.9,0,1.13,0,2.26,0,3.39,0,.17,0,.42.05.44-.16,0-.04,0-.08,0-.12.04-.35-.37-.34-.64-.43ZM255.05,42.88c-1.66,0-3.32,0-4.97,0-1.66,0-3.32,0-4.97,0-.25,0-.11-.25-.08-.38.21-.7.41-1.4.63-2.09.61-1.94,1.18-3.88,1.77-5.82.26-.86.48-1.74.77-2.59.44-1.24.7-2.52,1.09-3.78.21-.75.41-1.51.62-2.26.02-.11.09-.2.22-.2.05,0,.11.05.12.09.09.37.15.75.26,1.12.65,2.25,1.32,4.5,2.01,6.75.7,2.32,1.4,4.64,2.11,6.97.2.67.4,1.35.6,2.02.04.12-.01.17-.15.18Z"/>
  <path class="st0" d="M223.09,46.57c-.12-.1-.32-.13-.49-.18-.04-.01-.13.01-.16.05-.43.51-.74,1.08-1.13,1.61-.36.51-.82.94-1.38,1.29-.66.42-1.36.78-2.17.94-1.35.29-2.76.17-4.14.19-1.97-.02-4.13.04-6.1-.03-.06-.14.08-.24.12-.35.07-.19.17-.37.26-.55.96-1.89,1.85-3.8,2.79-5.69,2.16-4.28,4.25-8.58,6.39-12.87,1.01-2.05,2.02-4.1,3.02-6.15.4-.81.78-1.62,1.2-2.43.13-.24.11-.45,0-.68-.06-.11-.09-.13-.24-.13-5.14.04-10.1,0-15.25.01-.39,0-.36-.06-.5.31-.46,1.52-.95,3.04-1.43,4.56-.08.27-.06.31.25.4.17.05.38.09.48-.07.35-.5.68-1.02,1.04-1.52,1.16-1.62,3.32-2.48,5.47-2.44,1.28-.02,2.56,0,3.85,0,.99.02,2-.06,2.98.07.11.02.15.08.12.17-.05.12-.1.25-.16.37-.36.72-.73,1.44-1.08,2.17-1.48,3.09-3.05,6.15-4.54,9.23-1.16,2.37-2.36,4.72-3.53,7.08-.8,1.66-1.6,3.31-2.43,4.96-.72,1.5-1.54,2.97-2.19,4.49-.04.22.05.33.31.34,2.82,0,5.64,0,8.46,0h0c2.81,0,5.61,0,8.42,0,.19,0,.23-.03.29-.19.48-1.52.95-3.04,1.43-4.56.04-.13.19-.29.05-.41Z"/>
  <path class="st0" d="M239.55,38.52c-.18-.07-.4-.09-.52.09-.08.13-.17.25-.25.37-.97,1.58-1.85,2.58-3.83,3.24-.77.26-1.59.32-2.4.33-1.15.02-2.47,0-3.62,0-.11-.02-.41.05-.34-.12.37-.82.77-1.63,1.19-2.43,1.78-3.65,3.63-7.27,5.41-10.92,1.14-2.2,2.15-4.45,3.3-6.65.15-.27.1-.51-.02-.75-.03-.07-.09-.1-.18-.1-.47.03-.93,0-1.4,0-3.5.09-6.82.01-10.32.03-.13,0-.21.04-.24.13-.51,1.58-.99,3.17-1.49,4.75-.09.29-.09.3.23.39.18.07.4.09.52-.09.69-1,1.26-2.1,2.39-2.79.73-.46,1.49-.85,2.39-.99.64-.1,1.28-.17,1.93-.16.97,0,1.93,0,2.9,0,.12,0,.15.05.1.16-.91,1.96-1.93,3.88-2.86,5.83-1.97,3.98-3.98,7.94-5.91,11.94-.39.81-.85,1.6-1.16,2.43-.05.12-.06.22,0,.34.09.16.21.25.42.23,2.04,0,4.07,0,6.11,0h0c2.07,0,4.13,0,6.2,0,.19,0,.23-.19.28-.32.49-1.51.95-3.04,1.4-4.56.09-.29.09-.3-.23-.39Z"/>
  <path class="st0" d="M193.64,22.32c.43.11.8.31,1.13.56.53.36.68.96.68,1.52-.01,2.28-.02,4.55-.02,6.83.03,4.66,0,9.31.03,13.97,0,1.32,0,2.63-.02,3.95,0,1.17-1.09,1.71-2.24,2.01-.23.08-.16.32-.15.48.03.08.17.11.27.1,1.01,0,4.74,0,5.22,0h0c.47,0,.93,0,1.4,0,.43,0,.45-.02.41-.41-.03-.22-.36-.21-.55-.28-.76-.23-1.64-.68-1.77-1.43-.05-.36-.1-.73-.1-1.1.07-7.19.02-14.38.04-21.57,0-.16-.05-.32-.04-.47.06-.8-.03-1.6.04-2.4,0-1.03,1.14-1.61,2.16-1.85.2-.05.24-.17.23-.34,0-.22-.04-.26-.28-.26-2.26-.01-4.5.01-6.76,0-.1,0-.23.01-.27.09-.17.4.23.53.59.61Z"/>
  <path class="st0" d="M319.16,51.11c-.09-.03-.17-.05-.26-.07-.8-.22-1.62-.69-1.8-1.45-.08-.34-.08-.68-.08-1.02,0-1.26,0-2.53,0-3.79-.01-5.24.02-10.47,0-15.71,0-1.22-.01-2.45-.01-3.67,0-.39,0-.79,0-1.18-.02-1.12,1.05-1.74,2.18-2,.25-.07.37-.45.14-.57-1.01-.09-2.05.05-3.06-.06-.49.1-.99,0-1.48.03-.76.05-1.54.02-2.3,0-.4,0-.4.05-.38.36,0,.24.32.24.51.31.39.1.75.27,1.08.49.47.3.74.69.78,1.19.03.34.07.68.05,1.02-.05.66,0,1.31-.03,1.96-.02,3.39,0,6.79,0,10.18,0,2.8,0,5.6,0,8.4,0,1.3,0,2.41,0,3.7,0,1.04-1.12,1.65-2.17,1.88-.15.04-.23.12-.22.26,0,.08,0,.16.02.23.03.08.15.13.25.11.9,0,4.72,0,5.22,0h0c.51,0,1.02,0,1.54,0,.27,0,.32-.04.31-.28,0-.21-.05-.27-.29-.34Z"/>
  <path class="st0" d="M285.83,51.15c-.28-.09-.58-.15-.85-.27-.76-.38-1.38-.9-1.79-1.57-2.2-3.65-4.38-7.31-6.58-10.96-.08-.13-.05-.19.1-.24.28-.1.57-.17.84-.28,1.76-.76,3.26-1.98,4.09-3.54,1.09-2.04,1.16-4.46.35-6.58-1.04-2.34-3.22-4.42-5.89-5.39-1.39-.39-2.83-.69-4.3-.66-.81.02-1.63-.08-2.44-.05-.41.04-.81.04-1.22.04-.9,0-1.81,0-2.71,0-.21,0-.26.05-.27.23,0,.25.04.3.3.38.11.04.23.06.34.1.76.23,1.55.69,1.71,1.43.05.22.08.44.08.66,0,.84,0,1.68,0,2.52,0,3.24,0,6.47,0,9.71h0c0,2.85,0,5.71.02,8.56,0,1.32,0,2.63-.02,3.95.01,1.1-1.07,1.7-2.18,1.96-.22.07-.32.34-.2.53.02.03.07.06.11.06,1.14.04,2.29,0,3.43.02,1.14.03,2.29,0,3.43,0,.26,0,.31-.05.3-.29.03-.31-.3-.34-.56-.41-.71-.2-1.51-.61-1.74-1.27-.07-.23-.13-.46-.13-.7,0-.93,0-1.87-.01-2.8,0-.43.02-1.56.02-1.69-.01-1.14-.04-2.28,0-3.43.02-.92-.04-1.84.01-2.76.02-.14.05-.16.2-.12.58.2,1.21.19,1.82.28.58.08,1.17.08,1.76.02.18-.03.26.11.32.23,1.5,2.5,2.99,5,4.5,7.5.53.88,1.05,1.77,1.58,2.66.31.57.75,1.59-.16,1.91-.34.1-.68.21-1.04.27-.11.03-.19.1-.2.2-.03.35-.01.4.39.4.92,0,1.84,0,2.76,0,1.19,0,2.38,0,3.57,0,.09,0,.18,0,.27,0,.21-.03.14-.26.14-.41,0-.09-.07-.15-.16-.17ZM273,37.24c-.91-.01-1.87-.04-2.63-.55-.22-.14-.35-.29-.34-.55.04-1.59,0-3.18.01-4.77,0,0,0,0,0,0,0-1.27,0-2.55,0-3.82.01-.46.01-.92-.05-1.37.07-.58.03-1.15.02-1.73,0-.22.03-.44-.03-.66-.06-.36.51-.51.81-.64.6-.21,1.23-.27,1.87-.21,2.6.16,4.77,1.63,5.94,3.63.66,1.06,1.03,2.22,1.07,3.42.13,1.26-.08,2.57-.61,3.75-.52,1.04-1.35,1.98-2.42,2.64-.57.35-1.24.53-1.9.7-.57.13-1.15.18-1.74.17Z"/>
  <path class="st0" d="M130.4,31.41c-.15-.52-.37-1.03-.52-1.55-.25-.69-.64-1.33-1.01-1.97-.51-.93-1.18-1.77-1.97-2.53-.51-.48-1.04-.95-1.65-1.33-.43-.27-.85-.55-1.28-.81-.7-.42-1.47-.71-2.26-.98-.84-.31-1.75-.5-2.66-.54-1.11-.03-2.23-.13-3.33-.05-1.19.02-2.38-.03-3.57.02-.04,0-.08.04-.1.07-.17.4.23.54.59.61.43.11.8.31,1.13.56.53.36.68.96.68,1.52-.01,2.28-.02,4.55-.02,6.83.01,2.85.02,5.71.01,8.56-.02,2.66.04,5.31.01,7.97-.04,1.04.26,2.23-.94,2.87-.29.16-.59.31-.93.4-.33.09-.62.1-.57.48,0,.16.06.21.25.21,1.25,0,3.75.02,3.75.03,1.58-.04,3.17.11,4.73-.14,3.95-.68,6.87-2.59,8.56-5.8.54-.91.9-1.9,1.16-2.89.2-.88.46-1.74.54-2.63.22-2.07.29-4.18,0-6.25-.1-.9-.41-1.77-.61-2.66ZM128.16,40.86c-.2,1.84-.76,3.67-1.84,5.27-1.79,2.57-5.31,5.17-8.95,4.02-.24-.08-.55-.26-.52-.52.03-.16,0-.34-.02-.51.1-.83.02-1.65.05-2.48,0-.56,0-3.08,0-3.77.02-1.46.01-2.92-.01-4.37.03-3.22.01-6.44.02-9.65-.02-.88-.01-4.68-.01-4.93,0-.29.02-.48.18-.56.61-.32,1.25-.4,1.93-.42,1.85-.04,3.82.92,5.01,1.95,1.82,1.55,2.88,3.81,3.48,5.97.68,2.1.93,4.24.94,6.42.01,1.17-.12,2.41-.26,3.58Z"/>
  <path class="st0" d="M50.48,31.41c-.15-.52-.37-1.03-.52-1.55-.25-.69-.64-1.33-1.01-1.97-.51-.93-1.18-1.77-1.97-2.53-.51-.48-1.04-.95-1.65-1.33-.43-.27-.85-.55-1.28-.81-.7-.42-1.47-.71-2.26-.98-.84-.31-1.75-.5-2.66-.54-1.11-.03-2.23-.13-3.33-.05-1.19.02-2.38-.03-3.57.02-.04,0-.08.04-.1.07-.17.4.23.54.59.61.43.11.8.31,1.13.56.53.36.68.96.68,1.52-.01,2.28-.02,4.55-.02,6.83.01,2.85.02,5.71.01,8.56-.02,2.66.04,5.31.01,7.97-.04,1.04.26,2.23-.94,2.87-.29.16-.59.31-.93.4-.33.09-.62.1-.57.48,0,.16.06.21.25.21,1.25,0,3.75.02,3.75.03,1.58-.04,3.17.11,4.73-.14,3.95-.68,6.87-2.59,8.56-5.8.54-.91.9-1.9,1.16-2.89.2-.88.46-1.74.54-2.63.22-2.07.29-4.18,0-6.25-.1-.9-.41-1.77-.61-2.66ZM48.24,40.86c-.2,1.84-.76,3.67-1.84,5.27-1.79,2.57-5.31,5.17-8.95,4.02-.24-.08-.55-.26-.52-.52.03-.16,0-.34-.02-.51.1-.83.02-1.65.05-2.48,0-.56,0-3.08,0-3.77.02-1.46.01-2.92-.01-4.37.03-3.22.01-6.44.02-9.65-.02-.88-.01-4.68-.01-4.93,0-.29.02-.48.18-.56.61-.32,1.25-.4,1.93-.42,1.85-.04,3.82.92,5.01,1.95,1.82,1.55,2.88,3.81,3.48,5.97.68,2.1.93,4.24.94,6.42.01,1.17-.12,2.41-.26,3.58Z"/>
</svg>